<?xml version="1.0" encoding="utf-8"?>
<!DOCTYPE svg PUBLIC "-//W3C//DTD SVG 1.1//EN" "http://www.w3.org/Graphics/SVG/1.1/DTD/svg11.dtd">
<svg version="1.1" id="图形" xmlns="http://www.w3.org/2000/svg" xmlns:xlink="http://www.w3.org/1999/xlink" x="0px" y="0px" width="1024px" height="1024px" viewBox="0 0 1024 1024" enable-background="new 0 0 1024 1024" xml:space="preserve">
  <path fill="#56abe4" d="M312.523341 556.363785l478.435557 0L706.371384 132.603479 450.809871 47.730463 228.945831 132.603479l22.546505 113.181759 94.42251 0-9.221012-46.706765 134.158513-51.196009 154.487513 51.196009 21.601994 107.73777L262.952342 306.816243l18.419512 94.42251 384.320039 0 12.095479 60.7015L293.796838 461.940253 312.523341 556.363785zM312.523341 556.363785M959.56292 302.052752c0-129.49326-13.699-252.696256-38.331004-363.826286-12.55699-3.248997-25.335015-6.323009-38.287001-9.17701C909.024897 41.978459 923.602917 168.432499 923.602917 302.052752c0 133.61002-14.57802 260.063037-40.658002 372.992039 12.951987-2.721994 25.730011-5.92699 38.287001-9.17701C945.86392 554.738775 959.56292 431.534755 959.56292 302.052752zM136.960837 675.044792c-12.95301-2.721994-25.730011-5.92699-38.331004-9.17701C73.997829 554.738775 60.342832 431.534755 60.342832 302.052752c0-129.49326 13.654998-252.696256 38.287001-363.826286 12.600993-3.248997 25.377994-6.323009 38.331004-9.17701C110.879831 41.978459 96.302835 168.432499 96.302835 302.052752 96.302835 435.662773 110.879831 562.114766 136.960837 675.044792zM107.806843 704.198785c-3.248997-12.600993-6.279007-25.377994-9.17701-38.331004 12.600993 3.248997 25.377994 6.455015 38.331004 9.17701 2.677992 12.777001 5.92699 25.554002 9.17701 38.112016C133.162324 710.477792 120.407835 707.40378 107.806843 704.198785zM912.054907 704.198785c-12.55699 3.204995-25.51 6.279007-38.637995 8.956999 3.599991-12.55699 6.630001-25.335015 9.528004-38.112016 12.951987-2.721994 25.730011-5.92699 38.287001-9.17701C918.377916 678.820792 915.282415 691.597793 912.054907 704.198785zM873.416911 713.155784C762.463913 738.007799 639.25887 751.662797 509.952876 751.662797c-129.504516 0-252.511038-13.654998-363.815029-38.505989-3.248997-12.55699-6.499018-25.335015-9.17701-38.112016 112.754017 26.081005 239.33904 40.658002 372.992039 40.658002 133.608997 0 260.063037-14.576997 372.992039-40.658002C880.046912 687.821793 877.016903 700.598794 873.416911 713.155784zM136.960837-70.950544c-12.95301 2.854001-25.730011 5.928013-38.331004 9.17701 2.898003-12.951987 5.92699-25.730011 9.17701-38.331004 12.600993-3.248997 25.356504-6.279007 38.331004-8.956999C142.887826-96.504546 139.638829-83.726521 136.960837-70.950544zM882.944915-70.950544c-2.898003-12.775978-5.928013-25.554002-9.528004-38.110993 13.127995 2.677992 26.079982 5.708002 38.637995 8.956999 3.226484 12.600993 6.323009 25.379017 9.17701 38.331004C908.673903-65.022531 895.896902-68.096543 882.944915-70.950544zM509.952876-111.608545c-133.652999 0-260.238023 14.576997-372.992039 40.656979 2.677992-12.775978 5.92699-25.554002 9.17701-38.110993 111.305015-24.850991 234.311537-38.507012 363.815029-38.507012 129.305995 0 252.511038 13.656021 363.465059 38.507012 3.599991 12.55699 6.630001 25.335015 9.528004 38.110993C770.015913-97.030525 643.561873-111.608545 509.952876-111.608545z" transform="translate(0, 812) scale(1, -1)"/>
</svg>
