<?xml version="1.0" encoding="utf-8"?>
<!DOCTYPE svg PUBLIC "-//W3C//DTD SVG 1.1//EN" "http://www.w3.org/Graphics/SVG/1.1/DTD/svg11.dtd">
<svg version="1.1" id="图形" xmlns="http://www.w3.org/2000/svg" xmlns:xlink="http://www.w3.org/1999/xlink" x="0px" y="0px" width="1024px" height="1024px" viewBox="0 0 1024 1024" enable-background="new 0 0 1024 1024" xml:space="preserve">
  <path fill="#D82A20" d="M964.544 161.568c-0.96-1.984-2.624-3.648-4.736-4.48L515.2-19.616c-1.024-0.448-2.176-0.64-3.328-0.64-1.152 0-2.304 0.256-3.328 0.64L64 157.088c-2.112 0.896-3.84 2.496-4.736 4.48-0.576-1.152-0.896-2.432-0.896-3.776 0.064-3.648 0.064-122.304 0-125.888C58.368 28.256 60.608 25.056 64 23.712l444.608-176.704c1.024-0.384 2.176-0.64 3.328-0.64 1.152 0 2.304 0.192 3.328 0.64l444.608 176.704c3.392 1.344 5.568 4.608 5.696 8.192-0.064 3.648-0.064 122.304 0 125.888C965.44 159.136 965.12 160.416 964.544 161.568zM964.544 368.352c-0.96-1.984-2.624-3.648-4.736-4.48L515.2 187.168c-1.024-0.448-2.176-0.64-3.328-0.64-1.152 0-2.304 0.256-3.328 0.64L64 363.936c-2.112 0.896-3.84 2.496-4.736 4.48C58.688 367.2 58.304 365.92 58.304 364.64c0.064-3.648 0.064-122.304 0-125.888C58.368 235.104 60.608 231.84 64 230.496l444.608-176.704c1.024-0.384 2.176-0.64 3.328-0.64 1.152 0 2.304 0.192 3.328 0.64l444.608 176.704c3.392 1.344 5.568 4.608 5.696 8.192-0.064 3.648-0.064 122.304 0 125.888C965.44 365.92 965.12 367.2 964.544 368.352zM965.504 568.16c-0.064 3.648-2.304 6.848-5.696 8.192L515.2 753.12C514.176 753.504 513.024 753.76 511.872 753.76c-1.152 0-2.304-0.192-3.328-0.64L64 576.416C60.608 575.072 58.368 571.808 58.304 568.16c0.064-3.648 0.064-122.304 0-125.888C58.368 438.624 60.608 435.424 64 434.016l444.608-176.704c1.024-0.384 2.176-0.64 3.328-0.64 1.152 0 2.304 0.192 3.328 0.64l444.608 176.704c3.392 1.344 5.568 4.608 5.696 8.192C965.376 445.856 965.376 564.512 965.504 568.16zM359.936 645.536l84.544 16.256L426.496 697.888C426.112 698.592 426.24 699.424 426.752 700 427.264 700.512 428.096 700.704 428.8 700.448l71.936-27.776 84.928 16.384c0.832 0.128 1.664-0.256 2.048-1.024C588.096 687.2 587.904 686.304 587.264 685.728L549.44 653.856 620.48 626.4c0.896-0.32 1.344-1.28 1.152-2.176C621.44 623.392 620.608 622.752 619.648 622.816L521.216 630.048 480.32 595.552C480 595.232 479.552 595.104 479.104 595.104c-0.128 0-0.256 0-0.384 0.064C478.208 595.232 477.696 595.616 477.44 596.128L458.112 634.656 360.192 641.824C359.232 641.888 358.528 642.656 358.464 643.616S359.04 645.408 359.936 645.536zM288.96 519.072c-28.608 0-55.744 4.672-76.416 13.056C191.808 540.64 180.416 551.904 180.48 563.872c0.064 11.456 10.688 21.952 29.952 29.504C228.672 600.544 252.992 604.512 279.04 604.512c28.096 0 54.912-4.48 75.392-12.672 21.312-8.448 33.024-19.84 33.088-32 0.064-11.264-10.176-21.632-28.736-29.184C340.416 523.168 315.648 519.072 288.96 519.072zM577.344 502.752 531.712 415.84c-0.32-0.64-0.96-1.024-1.664-1.024-0.256 0-0.448 0.064-0.704 0.128L367.936 480.8C367.168 481.12 366.656 481.952 366.784 482.848 366.912 483.68 367.616 484.32 368.448 484.448L575.552 505.44c0.64 0.064 1.344-0.256 1.728-0.832C577.664 504.096 577.664 503.328 577.344 502.752zM843.264 561.184l-111.36-45.76c-0.256-0.064-0.448-0.128-0.704-0.128-0.256 0-0.512 0.064-0.704 0.128l-126.72 52.16C603.136 567.904 602.624 568.608 602.688 569.376c0 0.768 0.448 1.472 1.152 1.728l111.872 44.416c0.448 0.192 0.96 0.192 1.408 0l126.144-50.816c0.704-0.256 1.152-0.96 1.152-1.728C844.416 562.144 843.968 561.44 843.264 561.184z" transform="translate(0, 812) scale(1, -1)"/>
</svg>
