<?xml version="1.0" encoding="utf-8"?>
<!DOCTYPE svg PUBLIC "-//W3C//DTD SVG 1.1//EN" "http://www.w3.org/Graphics/SVG/1.1/DTD/svg11.dtd">
<svg version="1.1" id="图形" xmlns="http://www.w3.org/2000/svg" xmlns:xlink="http://www.w3.org/1999/xlink" x="0px" y="0px" width="1024px" height="1024px" viewBox="0 0 1024 1024" enable-background="new 0 0 1024 1024" xml:space="preserve">
  <path fill="#80bd01" d="M511.834-148c-11.54 0-23.072 3.124-33.266 9.198l-105.97 64.88c-15.828 9.124-8.046 12.406-2.886 14.282 21.13 7.562 27.426 11.314 49.894 24.57 2.412 1.334 5.494 0.848 7.91-0.644l79.42-47.008c2.952-1.7 7.114-1.7 9.862 0l310.376 184.492c2.95 1.754 4.83 5.292 4.83 8.882L832.004 484.262c0 3.7-1.88 7.184-4.898 9.056L516.866 682.662c-2.956 1.788-6.842 1.788-9.796 0L197.032 493.252C193.944 491.446 192 487.856 192 484.262l0-373.61c0-3.626 1.944-7.026 4.962-8.778l79.858-47.944C324.04 29.522 352 54.27 352 83.152L352 450.55c0 5.304 4.094 9.454 9.192 9.454l45.618 0c5.03 0 9.194-4.144 9.194-9.454l0-367.396c0-65.126-38.706-102.496-98.398-102.496-18.312 0-32.794 0-73.104 20.558l-83.168 49.562C140.742 63.082 128 86.07 128 110.688L128 489.618c0 24.632 12.742 47.568 33.33 59.834L478.7 739.18c20.054 11.76 46.748 11.76 66.664 0l317.3-189.728C883.26 537.154 896 514.202 896 489.618l0-378.93c0-24.618-12.74-47.5-33.336-59.906l-317.3-189.548c-10.194-6.072-21.664-9.198-33.396-9.198L511.834-148zM609.886 108.004c-129.22 0-168.012 63.22-168.012 118.542 0 5.258 4.096 9.458 9.124 9.458l41.042 0c4.564 0 8.454-3.4 9.124-8.032 6.168-43.204 33.496-62.3 108.648-62.3 66.798 0 94.182 20.692 94.182 57.368 0 21.184-6.926 36.848-110.814 47.394-86.854 8.882-140.576 28.746-140.576 100.59 0 66.27 53.992 104.98 144.468 104.98 92.256 0 152.924-28 158.346-101.658 0.204-2.674-0.736-5.258-2.482-7.288-1.742-1.93-4.156-3.054-6.706-3.054l-41.182 0c-4.292 0-8.048 3.124-8.918 7.426-8.802 33.906-33.94 46.804-99.126 46.804-72.972 0-81.492-25.506-81.492-45.214 0-23.926 10.062-30.882 108.588-44.344 97.522-13.326 143.866-32.234 143.866-103.104 0-71.562-57.616-117.566-158.15-117.566L609.886 108.004 609.886 108.004z" transform="translate(0, 812) scale(1, -1)"/>
</svg>
