<?xml version="1.0" encoding="utf-8"?>
<!DOCTYPE svg PUBLIC "-//W3C//DTD SVG 1.1//EN" "http://www.w3.org/Graphics/SVG/1.1/DTD/svg11.dtd">
<svg style="width:308px;height:308px;" version="1.1" id="图形" xmlns="http://www.w3.org/2000/svg" xmlns:xlink="http://www.w3.org/1999/xlink" x="0px" y="0px" width="1024px" height="1024px" viewBox="0 0 1024 1024" enable-background="new 0 0 1024 1024" xml:space="preserve">
  <path class="svgpath" data-index="path_0" fill="#11cd6e" d="M505.920512 226.629632l-159.322112-94.637056L62.990336 281.510912l118.8608 121.690112L505.920512 226.629632zM505.920512 581.357568 181.851136 404.785152 65.011712 543.050752l304.96768 180.682752L505.920512 581.357568zM509.256704 581.357568l140.827648 141.433856L959.869952 546.722816 833.32608 404.785152 509.256704 581.357568zM654.29504 777.335808l-146.722816-141.568-133.921792 142.03904L186.500096 661.507072l0 110.337024 324.00384 188.12928 326.933504-185.401344-0.504832-113.06496L654.29504 777.335808zM959.970304 281.510912 668.57984 131.991552l-159.323136 94.637056 324.0704 176.572416L959.970304 281.510912z" />

</svg>
